<?xml version="1.0" encoding="utf-8"?>
<!-- Generator: Adobe Illustrator 22.0.1, SVG Export Plug-In . SVG Version: 6.00 Build 0)  -->
<svg version="1.1" id="Calque_1" xmlns:sketch="http://www.bohemiancoding.com/sketch/ns"
	 xmlns="http://www.w3.org/2000/svg" xmlns:xlink="http://www.w3.org/1999/xlink" x="0px" y="0px" viewBox="0 0 60 60"
	 style="enable-background:new 0 0 60 60;" xml:space="preserve">
<style type="text/css">
	.st0{fill:#FFC300;}
</style>
<title></title>
<desc></desc>
<g id="black">
	<g id="slice" transform="translate(-700.000000, -600.000000)">
	</g>
	<g id="behance" transform="translate(12.000000, 18.000000)">
		<path class="st0" d="M23.4,1.9v2.3h9.2V1.9H23.4z M0.1,0.7l10.7,0.1c0,0,5.8-0.3,6.7,4.3c0.8,4.6-2.9,5.7-2.9,5.7s4.6,1.1,4,6.5
			s-7,5.5-7,5.5H0.1V0.7z M5,9.5l4.4,0c0.3,0,1,0,1.6-0.2c0.3-0.1,0.8-0.2,1.1-0.6c0.1-0.1,0.4-0.5,0.6-0.9c0.2-0.4,0.2-0.9,0.2-1.1
			c0-0.3-0.1-0.7-0.2-1c-0.1-0.3-0.3-0.6-0.6-0.8c-0.3-0.2-0.6-0.4-1-0.5c-0.4-0.1-0.9-0.2-1.4-0.2L5,4.3V9.5z M5,18.8l4.8,0
			c0.3,0,1.1,0,1.8-0.2c0.3-0.1,0.8-0.3,1.2-0.6c0.2-0.1,0.5-0.6,0.6-1c0.2-0.5,0.2-1,0.2-1.2c0-0.4-0.1-0.7-0.2-1.1
			s-0.3-0.6-0.6-0.8c-0.3-0.2-0.6-0.4-1.1-0.6c-0.4-0.1-0.9-0.2-1.5-0.2l-5.2,0V18.8z M24.4,15.8c0,0.1,0,3.3,2.6,4
			c3,0.8,4.4-1.7,4.5-2h4c-0.1,0.5-1.7,7-10.5,4.9c-5.4-1.3-5.1-7.7-5.1-8.2c0-0.5,0-3.2,2.2-5.6s5.3-2.5,5.9-2.5s3.8,0,5.8,2.2
			c2.5,2.8,2,7.3,2,7.3L24.4,15.8z M31.4,13.1c0-0.5-0.1-1-0.3-1.4c-0.2-0.4-0.4-0.8-0.7-1.1c-0.3-0.3-0.7-0.6-1.1-0.7
			c-0.4-0.2-0.9-0.3-1.4-0.3c-0.5,0-0.9,0.1-1.3,0.3s-0.7,0.4-1,0.8c-0.3,0.3-0.5,0.7-0.7,1.1c-0.2,0.4-0.3,0.9-0.3,1.3H31.4z"/>
	</g>
</g>
</svg>
