<?xml version="1.0" encoding="utf-8"?>
<!-- Generator: Adobe Illustrator 22.0.1, SVG Export Plug-In . SVG Version: 6.00 Build 0)  -->
<svg version="1.1" id="Calque_1" xmlns:sketch="http://www.bohemiancoding.com/sketch/ns"
	 xmlns="http://www.w3.org/2000/svg" xmlns:xlink="http://www.w3.org/1999/xlink" x="0px" y="0px" viewBox="0 0 60 60"
	 style="enable-background:new 0 0 60 60;" xml:space="preserve">
<style type="text/css">
	.st0{fill:#FFC300;}
</style>
<title></title>
<desc></desc>
<g id="black">
	<g id="slice" transform="translate(-900.000000, -500.000000)">
	</g>
	<g id="github" transform="translate(11.000000, 11.000000)">
		<path class="st0" d="M14.4,36.5c0-0.4,0-1.6,0-3.2c-5.1,1.1-6.2-2.5-6.2-2.5C7.3,28.6,6.1,28,6.1,28c-1.7-1.2,0.1-1.2,0.1-1.2
			c1.9,0.1,2.8,2,2.8,2c1.6,2.9,4.3,2.1,5.4,1.6c0.2-1.2,0.6-2.1,1.2-2.5c-4.1-0.5-8.4-2.1-8.4-9.4c0-2.1,0.7-3.8,1.9-5.1
			c-0.2-0.5-0.8-2.4,0.2-5c0,0,1.6-0.5,5.1,1.9c1.5-0.4,3.1-0.6,4.6-0.6c1.6,0,3.1,0.2,4.6,0.6c3.5-2.4,5.1-1.9,5.1-1.9
			c1,2.6,0.4,4.5,0.2,5c1.2,1.3,1.9,3,1.9,5.1c0,7.3-4.3,8.9-8.4,9.3c0.7,0.6,1.3,1.7,1.3,3.5c0,2.5,0,4.6,0,5.2
			c0,0.5,0.3,1.1,1.3,0.9c7.3-2.5,12.6-9.6,12.6-18C37.5,9,29.2,0.5,19,0.5C8.8,0.5,0.5,9,0.5,19.5c0,8.4,5.3,15.5,12.6,18
			C14.1,37.6,14.4,37,14.4,36.5z"/>
	</g>
</g>
</svg>
