<?xml version="1.0" encoding="utf-8"?>
<!-- Generator: Adobe Illustrator 22.0.1, SVG Export Plug-In . SVG Version: 6.00 Build 0)  -->
<svg version="1.1" id="Calque_1" xmlns="http://www.w3.org/2000/svg" xmlns:xlink="http://www.w3.org/1999/xlink" x="0px" y="0px"
	 viewBox="0 0 100 125" style="enable-background:new 0 0 100 125;" xml:space="preserve">
<style type="text/css">
	.st0{fill:#303641;}
</style>
<g>
	<g>
		<path class="st0" d="M50,85.4c-0.4,0-0.8,0.3-0.8,0.8v4.1c0,0.4,0.3,0.8,0.8,0.8s0.8-0.3,0.8-0.8v-4.1
			C50.8,85.7,50.4,85.4,50,85.4z"/>
		<path class="st0" d="M50,14.3c0.4,0,0.8-0.3,0.8-0.8v-4c0-0.4-0.3-0.8-0.8-0.8S49.2,9,49.2,9.5v4.1C49.2,14,49.6,14.3,50,14.3z"/>
		<path class="st0" d="M9.6,50.6h4.1c0.4,0,0.8-0.3,0.8-0.8c0-0.4-0.3-0.8-0.8-0.8H9.6c-0.4,0-0.8,0.3-0.8,0.8
			C8.9,50.3,9.2,50.6,9.6,50.6z"/>
		<path class="st0" d="M86.3,50.6h4.1c0.4,0,0.8-0.3,0.8-0.8c0-0.4-0.3-0.8-0.8-0.8h-4.1c-0.4,0-0.8,0.3-0.8,0.8
			C85.6,50.3,85.9,50.6,86.3,50.6z"/>
		<path class="st0" d="M68.2,80.5c-0.1,0-0.3,0-0.4,0.1c-0.4,0.2-0.5,0.7-0.3,1l2,3.5c0.2,0.4,0.7,0.5,1,0.3c0.4-0.2,0.5-0.7,0.3-1
			l-2-3.5C68.7,80.6,68.5,80.5,68.2,80.5z"/>
		<path class="st0" d="M31.2,18.8c0.2,0.4,0.7,0.5,1,0.3c0.4-0.2,0.5-0.7,0.3-1l-2-3.5c-0.1-0.2-0.4-0.4-0.6-0.4
			c-0.1,0-0.3,0-0.4,0.1c-0.4,0.2-0.5,0.7-0.3,1L31.2,18.8z"/>
		<path class="st0" d="M18.6,67.3c-0.1,0-0.3,0-0.4,0.1l-3.5,2c-0.4,0.2-0.5,0.7-0.3,1c0.2,0.4,0.7,0.5,1,0.3l3.5-2
			c0.4-0.2,0.5-0.7,0.3-1C19.1,67.4,18.8,67.3,18.6,67.3z"/>
		<path class="st0" d="M81.8,32.3l3.5-2c0.4-0.2,0.5-0.7,0.3-1c-0.1-0.2-0.4-0.4-0.6-0.4c-0.1,0-0.3,0-0.4,0.1L81,31
			c-0.4,0.2-0.5,0.7-0.3,1C81,32.4,81.4,32.5,81.8,32.3z"/>
		<path class="st0" d="M85.4,69.3l-3.5-2c-0.1-0.1-0.2-0.1-0.4-0.1c-0.3,0-0.5,0.1-0.7,0.4c-0.2,0.4-0.1,0.8,0.3,1l3.5,2
			c0.4,0.2,0.8,0.1,1-0.3C85.9,69.9,85.8,69.5,85.4,69.3z"/>
		<path class="st0" d="M14.6,30.4l3.5,2c0.4,0.2,0.8,0.1,1-0.3c0.2-0.4,0.1-0.8-0.3-1l-3.5-2c-0.1,0-0.2-0.1-0.3-0.1
			c-0.3,0-0.5,0.1-0.6,0.4C14.1,29.8,14.2,30.2,14.6,30.4z"/>
		<path class="st0" d="M32.3,80.7c-0.1-0.1-0.2-0.1-0.4-0.1c-0.3,0-0.5,0.1-0.7,0.4l-2,3.5c-0.2,0.4-0.1,0.8,0.3,1s0.8,0.1,1-0.3
			l2-3.5C32.8,81.4,32.7,80.9,32.3,80.7z"/>
		<path class="st0" d="M67.7,19c0.4,0.2,0.8,0.1,1-0.3l2-3.5c0.2-0.4,0.1-0.8-0.3-1c-0.1-0.1-0.2-0.1-0.4-0.1
			c-0.3,0-0.5,0.1-0.7,0.4l-2,3.5C67.2,18.3,67.3,18.8,67.7,19z"/>
		<path class="st0" d="M50,96c25.4,0,46-20.6,46-46S75.4,4,50,4S4,24.6,4,50S24.6,96,50,96z M50,6c24.3,0,44,19.7,44,44
			S74.3,94,50,94S6,74.3,6,50S25.7,6,50,6z"/>
		<path class="st0" d="M40.4,51H48v29.9c0,0.6,0.4,1,1,1s1-0.4,1-1V51h19.4c0.6,0,1-0.4,1-1s-0.4-1-1-1H50v-7.4c0-0.6-0.4-1-1-1
			s-1,0.4-1,1V49h-7.6c-0.6,0-1,0.4-1,1S39.9,51,40.4,51z"/>
	</g>
</g>
</svg>
