<?xml version="1.0" encoding="utf-8"?>
<!-- Generator: Adobe Illustrator 22.0.1, SVG Export Plug-In . SVG Version: 6.00 Build 0)  -->
<svg version="1.1" id="Calque_1" xmlns="http://www.w3.org/2000/svg" xmlns:xlink="http://www.w3.org/1999/xlink" x="0px" y="0px"
	 viewBox="0 0 100 100" style="enable-background:new 0 0 100 100;" xml:space="preserve">
<style type="text/css">
	.st0{fill:#FFC300;}
</style>
<g id="Layer_3">
</g>
<g id="Layer_1">
	<path id="instegram" class="st0" d="M66.8,76.9H31c-5.6,0-10.1-4.5-10.1-10.1V31c0-5.6,4.5-10.1,10.1-10.1h35.8
		c5.6,0,10.1,4.5,10.1,10.1v35.8C76.9,72.4,72.4,76.9,66.8,76.9z M48.9,40c-4.9,0-9,4-9,9s4,9,9,9s9-4,9-9S53.8,40,48.9,40z
		 M70.2,27.6h-9v9h9V27.6z M71.3,43.3h-7.7c0.7,1.8,1,3.6,1,5.6c0,8.6-7.1,15.7-15.7,15.7s-15.7-7.1-15.7-15.7c0-2,0.3-3.8,1-5.6
		h-7.7v20.2c0,4.4,3.5,7.8,7.8,7.8h29.1c4.4,0,7.8-3.5,7.8-7.8L71.3,43.3L71.3,43.3z"/>
</g>
</svg>
