<?xml version="1.0" encoding="utf-8"?>
<!-- Generator: Adobe Illustrator 22.0.1, SVG Export Plug-In . SVG Version: 6.00 Build 0)  -->
<svg version="1.1" id="Capa_1" xmlns="http://www.w3.org/2000/svg" xmlns:xlink="http://www.w3.org/1999/xlink" x="0px" y="0px"
	 viewBox="0 0 511.7 511.7" style="enable-background:new 0 0 511.7 511.7;" xml:space="preserve">
<style type="text/css">
	.st0{fill:#FFC300;}
</style>
<g>
	<g>
		<path class="st0" d="M279.3,262.9c-5.6-5.6-12.8-9-20.6-9.9c-0.8-7.8-4.3-15-9.9-20.6c-6.5-6.5-15.2-10.1-24.4-10.1
			c-19,0-34.4,15.5-34.4,34.5l0,60.9c0,2.2,1.8,4,4,4l60.9,0c9.2,0,17.8-3.6,24.4-10.1c6.5-6.5,10.1-15.2,10.1-24.4
			C289.3,278.1,285.8,269.5,279.3,262.9z M273.6,306c-5,5-11.6,7.7-18.7,7.7l-56.9,0l0-56.9c0-14.6,11.9-26.4,26.4-26.5
			c7.1,0,13.7,2.8,18.7,7.8c5,5,7.7,11.6,7.7,18.7c0,1.1,0.4,2.1,1.2,2.8c0.7,0.8,1.8,1.2,2.8,1.2c7.1,0,13.7,2.7,18.7,7.7
			c5,5,7.7,11.6,7.7,18.7C281.3,294.4,278.6,301,273.6,306z"/>
	</g>
</g>
<g>
	<g>
		<path class="st0" d="M237.5,243.8c-3.5-3.5-8.1-5.4-13-5.4c0,0,0,0,0,0c-10.2,0-18.4,8.3-18.4,18.5c0,2.2,1.8,4,4,4
			c2.2,0,4-1.8,4-4c0-5.8,4.7-10.5,10.5-10.5c0,0,0,0,0,0c2.8,0,5.4,1.1,7.4,3.1c1.6,1.6,4.1,1.6,5.7,0
			C239.1,247.9,239.1,245.4,237.5,243.8z"/>
	</g>
</g>
<g>
	<g>
		<path class="st0" d="M386.8,279.2l-107.5-198c-0.6-1.1-1.7-1.9-2.9-2c-1.2-0.2-2.5,0.2-3.4,1.1L23.8,329.6c-1.6,1.6-1.6,4.1,0,5.7
			l152.7,152.7c0.8,0.8,1.8,1.2,2.8,1.2s2-0.4,2.8-1.2l204-204C387.4,282.7,387.7,280.8,386.8,279.2z M179.3,479.5l-147.1-147
			L274.9,89.8l103.5,190.6L179.3,479.5z"/>
	</g>
</g>
<g>
	<g>
		<path class="st0" d="M398.1,267.9L290.7,70c-1.1-1.9-3.5-2.6-5.4-1.6c-1.9,1.1-2.7,3.5-1.6,5.4l107.5,197.9
			c0.7,1.3,2.1,2.1,3.5,2.1c0.6,0,1.3-0.2,1.9-0.5C398.5,272.3,399.2,269.9,398.1,267.9z"/>
	</g>
</g>
<g>
	<g>
		<path class="st0" d="M24.8,336.8c-0.7-2.1-3-3.2-5.1-2.5l-17,5.7c-2.1,0.7-3.2,3-2.5,5.1c0.6,1.7,2.1,2.7,3.8,2.7
			c0.4,0,0.8-0.1,1.3-0.2l17-5.7C24.3,341.2,25.5,338.9,24.8,336.8z"/>
	</g>
</g>
<g>
	<g>
		<path class="st0" d="M174.9,487c-2.1-0.7-4.4,0.4-5.1,2.5l-5.7,17c-0.7,2.1,0.4,4.4,2.5,5.1c0.4,0.1,0.8,0.2,1.3,0.2
			c1.7,0,3.2-1.1,3.8-2.7l5.7-17C178.2,489.9,177,487.7,174.9,487z"/>
	</g>
</g>
<g>
	<g>
		<path class="st0" d="M170.8,504.9l-164-164c-1.6-1.6-4.1-1.6-5.7,0s-1.6,4.1,0,5.7l164,164c0.8,0.8,1.8,1.2,2.8,1.2
			c1,0,2-0.4,2.8-1.2C172.4,509,172.4,506.5,170.8,504.9z"/>
	</g>
</g>
<g>
	<g>
		<path class="st0" d="M369.2,1.2c-1.6-1.6-4.1-1.6-5.7,0l-63.9,63.9c-1.6,1.6-1.6,4.1,0,5.7c0.8,0.8,1.8,1.2,2.8,1.2
			c1,0,2-0.4,2.8-1.2l63.9-63.9C370.7,5.3,370.7,2.7,369.2,1.2z"/>
	</g>
</g>
<g>
	<g>
		<path class="st0" d="M510.6,142.6c-1.6-1.6-4.1-1.6-5.7,0L399.1,248.4c-1.6,1.6-1.6,4.1,0,5.7c0.8,0.8,1.8,1.2,2.8,1.2
			s2-0.4,2.8-1.2l105.8-105.8C512.1,146.7,512.1,144.1,510.6,142.6z"/>
	</g>
</g>
<g>
	<g>
		<path class="st0" d="M510.6,142.6L369.2,1.2c-1.6-1.6-4.1-1.6-5.7,0s-1.6,4.1,0,5.7l141.4,141.4c0.8,0.8,1.8,1.2,2.8,1.2
			s2-0.4,2.8-1.2C512.1,146.7,512.1,144.1,510.6,142.6z"/>
	</g>
</g>
<g>
	<g>
		<path class="st0" d="M397.5,267c-1.6-1.6-4.1-1.6-5.7,0l-5.7,5.7c-1.6,1.6-1.6,4.1,0,5.7c0.8,0.8,1.8,1.2,2.8,1.2
			c1,0,2-0.4,2.8-1.2l5.7-5.7C399,271.1,399,268.6,397.5,267z"/>
	</g>
</g>
<g>
	<g>
		<path class="st0" d="M290,69c-1.6-1.6-4.1-1.6-5.7,0l-5.7,5.7c-1.6,1.6-1.6,4.1,0,5.7c0.8,0.8,1.8,1.2,2.8,1.2c1,0,2-0.4,2.8-1.2
			l5.7-5.7C291.6,73.1,291.6,70.6,290,69z"/>
	</g>
</g>
<g>
	<g>
		<path class="st0" d="M403.1,57.7c-1.6-1.6-4.1-1.6-5.7,0l-62.9,62.9c-1.6,1.6-1.6,4.1,0,5.7c0.8,0.8,1.8,1.2,2.8,1.2
			c1,0,2-0.4,2.8-1.2l62.9-62.9C404.7,61.8,404.7,59.3,403.1,57.7z"/>
	</g>
</g>
<g>
	<g>
		<path class="st0" d="M454,108.6c-1.6-1.6-4.1-1.6-5.7,0l-73.5,73.5c-1.6,1.6-1.6,4.1,0,5.7c0.8,0.8,1.8,1.2,2.8,1.2
			c1,0,2-0.4,2.8-1.2l73.5-73.5C455.6,112.7,455.6,110.2,454,108.6z"/>
	</g>
</g>
<g>
	<g>
		<path class="st0" d="M448.4,182.2L329.6,63.4c-1.6-1.6-4.1-1.6-5.7,0c-1.6,1.6-1.6,4.1,0,5.7l118.8,118.8c0.8,0.8,1.8,1.2,2.8,1.2
			s2-0.4,2.8-1.2C449.9,186.3,449.9,183.7,448.4,182.2z"/>
	</g>
</g>
<g>
	<g>
		<path class="st0" d="M187.8,420.1l-96.1-96.1c-1.6-1.6-4.1-1.6-5.7,0s-1.6,4.1,0,5.7l96.1,96.1c0.8,0.8,1.8,1.2,2.8,1.2
			c1,0,2-0.4,2.8-1.2C189.4,424.2,189.4,421.6,187.8,420.1z"/>
	</g>
</g>
<g>
	<g>
		<path class="st0" d="M153.9,408.8L103,357.9c-1.6-1.6-4.1-1.6-5.7,0s-1.6,4.1,0,5.7l50.9,50.9c0.8,0.8,1.8,1.2,2.8,1.2
			c1,0,2-0.4,2.8-1.2C155.4,412.9,155.4,410.3,153.9,408.8z"/>
	</g>
</g>
<g>
	<g>
		<path class="st0" d="M32.3,360.7c-1.6-1.6-4.1-1.6-5.7,0l-2.8,2.8c-1.6,1.6-1.6,4.1,0,5.7c0.8,0.8,1.8,1.2,2.8,1.2s2-0.4,2.8-1.2
			l2.8-2.8C33.8,364.8,33.8,362.3,32.3,360.7z"/>
	</g>
</g>
<g>
	<g>
		<path class="st0" d="M49.3,377.7c-1.6-1.6-4.1-1.6-5.7,0l-2.8,2.8c-1.6,1.6-1.6,4.1,0,5.7c0.8,0.8,1.8,1.2,2.8,1.2s2-0.4,2.8-1.2
			l2.8-2.8C50.8,381.8,50.8,379.2,49.3,377.7z"/>
	</g>
</g>
<g>
	<g>
		<path class="st0" d="M66.2,394.6c-1.6-1.6-4.1-1.6-5.7,0l-2.8,2.8c-1.6,1.6-1.6,4.1,0,5.7c0.8,0.8,1.8,1.2,2.8,1.2s2-0.4,2.8-1.2
			l2.8-2.8C67.8,398.7,67.8,396.2,66.2,394.6z"/>
	</g>
</g>
<g>
	<g>
		<path class="st0" d="M83.2,411.6c-1.6-1.6-4.1-1.6-5.7,0l-2.8,2.8c-1.6,1.6-1.6,4.1,0,5.7c0.8,0.8,1.8,1.2,2.8,1.2s2-0.4,2.8-1.2
			l2.8-2.8C84.8,415.7,84.8,413.2,83.2,411.6z"/>
	</g>
</g>
<g>
	<g>
		<path class="st0" d="M100.2,428.6c-1.6-1.6-4.1-1.6-5.7,0l-2.8,2.8c-1.6,1.6-1.6,4.1,0,5.7c0.8,0.8,1.8,1.2,2.8,1.2s2-0.4,2.8-1.2
			l2.8-2.8C101.7,432.6,101.7,430.1,100.2,428.6z"/>
	</g>
</g>
<g>
	<g>
		<path class="st0" d="M117.1,445.5c-1.6-1.6-4.1-1.6-5.7,0l-2.8,2.8c-1.6,1.6-1.6,4.1,0,5.7c0.8,0.8,1.8,1.2,2.8,1.2
			c1,0,2-0.4,2.8-1.2l2.8-2.8C118.7,449.6,118.7,447.1,117.1,445.5z"/>
	</g>
</g>
<g>
	<g>
		<path class="st0" d="M134.1,462.5c-1.6-1.6-4.1-1.6-5.7,0l-2.8,2.8c-1.6,1.6-1.6,4.1,0,5.7c0.8,0.8,1.8,1.2,2.8,1.2
			c1,0,2-0.4,2.8-1.2l2.8-2.8C135.6,466.6,135.6,464.1,134.1,462.5z"/>
	</g>
</g>
<g>
	<g>
		<path class="st0" d="M151.1,479.5c-1.6-1.6-4.1-1.6-5.7,0l-2.8,2.8c-1.6,1.6-1.6,4.1,0,5.7c0.8,0.8,1.8,1.2,2.8,1.2s2-0.4,2.8-1.2
			l2.8-2.8C152.6,483.6,152.6,481,151.1,479.5z"/>
	</g>
</g>
</svg>
