<?xml version="1.0" encoding="utf-8"?>
<!-- Generator: Adobe Illustrator 22.0.1, SVG Export Plug-In . SVG Version: 6.00 Build 0)  -->
<svg version="1.1" id="Calque_1" xmlns="http://www.w3.org/2000/svg" xmlns:xlink="http://www.w3.org/1999/xlink" x="0px" y="0px"
	 viewBox="0 0 26.1 45.5" style="enable-background:new 0 0 26.1 45.5;" xml:space="preserve">
<style type="text/css">
	.st0{fill:#FFC300;}
</style>
<g>
	<circle class="st0" cx="12" cy="44" r="1.5"/>
	<path class="st0" d="M13.1,0C5.9,0,0,5.9,0,13.1h2.4c0-5.9,4.8-10.6,10.6-10.6s10.6,4.8,10.6,10.6c0,3.9-2.1,7.4-5.3,9.2
		c-0.3,0.1-0.6,0.3-0.8,0.4c-0.5,0.2-1.5,1-1.5,1c-3.1,2.3-5.1,6-5.2,10.2h0v3.7h2.4v-3.5h0c0-3.9,2.1-7.2,5.2-9.1v0
		c4.5-2.1,7.7-6.6,7.7-11.9C26.1,5.9,20.3,0,13.1,0z"/>
</g>
</svg>
