<?xml version="1.0" encoding="utf-8"?>
<!-- Generator: Adobe Illustrator 22.0.1, SVG Export Plug-In . SVG Version: 6.00 Build 0)  -->
<svg version="1.1"
	 id="Calque_1" xmlns:cc="http://creativecommons.org/ns#" xmlns:dc="http://purl.org/dc/elements/1.1/" xmlns:inkscape="http://www.inkscape.org/namespaces/inkscape" xmlns:rdf="http://www.w3.org/1999/02/22-rdf-syntax-ns#" xmlns:sodipodi="http://sodipodi.sourceforge.net/DTD/sodipodi-0.dtd" xmlns:svg="http://www.w3.org/2000/svg"
	 xmlns="http://www.w3.org/2000/svg" xmlns:xlink="http://www.w3.org/1999/xlink" x="0px" y="0px" viewBox="0 0 62.5 68.3"
	 style="enable-background:new 0 0 62.5 68.3;" xml:space="preserve">
<style type="text/css">
	.st0{opacity:0.5;}
	.st1{fill:#303641;}
</style>
<g transform="translate(0,-952.36218)" class="st0">
	<path class="st1" d="M1,952.4c-0.6,0.1-1,0.5-1,1.1v66.1c0,0.6,0.5,1.1,1.1,1.1h60.3c0.6,0,1.1-0.5,1.1-1.1v-66.1
		c0-0.6-0.5-1.1-1.1-1.1L1,952.4C1.1,952.4,1,952.4,1,952.4L1,952.4z M2.2,954.6h58.1v63.9h-1.1c0-13.5-9.6-24.7-22.4-27.3
		c4.8-2.1,8.3-6.8,8.3-12.3c0-7.4-6.2-13.5-13.8-13.5c-7.6,0-13.8,6-13.8,13.5c0,5.5,3.4,10.2,8.3,12.3
		C13,993.7,3.4,1005,3.3,1018.5H2.2C2.2,1018.5,2.2,954.6,2.2,954.6z M31.3,967.6c6.4,0,11.6,5,11.6,11.3c0,6.2-5.2,11.3-11.6,11.3
		c-6.4,0-11.6-5-11.6-11.3C19.7,972.6,24.8,967.6,31.3,967.6z M31.3,992.8c14.2,0,25.7,11.5,25.7,25.7H5.5
		C5.6,1004.3,17.1,992.8,31.3,992.8z"/>
</g>
</svg>
