<?xml version="1.0" encoding="utf-8"?>
<!-- Generator: Adobe Illustrator 22.0.1, SVG Export Plug-In . SVG Version: 6.00 Build 0)  -->
<svg version="1.1" xmlns="http://www.w3.org/2000/svg" xmlns:xlink="http://www.w3.org/1999/xlink" x="0px" y="0px"
	 viewBox="0 0 54.3 73.5" style="enable-background:new 0 0 54.3 73.5;" xml:space="preserve">
<style type="text/css">
	.st0{fill:#96999F;}
</style>
<g id="Calque_2">
</g>
<g id="Calque_1">
	<path class="st0" d="M51.4,33h-2.2V22c0-12.1-9.9-22-22-22s-22,9.9-22,22v5.2c0,0.6,0.4,1,1,1s1-0.4,1-1V22c0-11,9-20,20-20
		s20,9,20,20v11H3c-1.6,0-3,1.3-3,3v26.4c0,6.1,5,11.1,11.1,11.1h32.1c6.1,0,11.1-5,11.1-11.1V36C54.4,34.3,53.1,33,51.4,33z
		 M52.4,62.3c0,5-4.1,9.1-9.1,9.1H11.2c-5,0-9.1-4.1-9.1-9.1V35.9c0-0.5,0.4-1,1-1h48.4c0.5,0,1,0.4,1,1v26.4H52.4z M27.2,45.8
		c-4.6,0-8.4,3.8-8.4,8.4s3.8,8.4,8.4,8.4s8.4-3.8,8.4-8.4S31.8,45.8,27.2,45.8z M27.2,60.6c-3.5,0-6.4-2.9-6.4-6.4s2.9-6.4,6.4-6.4
		s6.4,2.9,6.4,6.4S30.7,60.6,27.2,60.6z"/>
</g>
</svg>
