<?xml version="1.0" encoding="utf-8"?>
<!-- Generator: Adobe Illustrator 22.0.1, SVG Export Plug-In . SVG Version: 6.00 Build 0)  -->
<svg version="1.1" id="Calque_1" xmlns="http://www.w3.org/2000/svg" xmlns:xlink="http://www.w3.org/1999/xlink" x="0px" y="0px"
	 viewBox="0 0 38.9 45.8" style="enable-background:new 0 0 38.9 45.8;" xml:space="preserve">
<style type="text/css">
	.st0{fill:#FFC300;}
</style>
<title>Profile 0.2</title>
<desc>Created with Sketch.</desc>
<g>
	<g>
		<path class="st0" d="M38.9,44.6c0,0.6-0.5,1.1-1.1,1.1c-0.6,0-1.1-0.5-1.1-1.1c0-9.5-7.7-17.2-17.2-17.2S2.3,35.1,2.3,44.6
			c0,0.6-0.5,1.1-1.1,1.1S0,45.2,0,44.6c0-10.7,8.7-19.4,19.4-19.4S38.9,33.9,38.9,44.6z M19.4,22.9C13.1,22.9,8,17.8,8,11.4
			S13.1,0,19.4,0s11.4,5.1,11.4,11.4S25.8,22.9,19.4,22.9z M19.4,20.6c5.1,0,9.1-4.1,9.1-9.1s-4.1-9.1-9.1-9.1s-9.2,4.1-9.2,9.1
			S14.4,20.6,19.4,20.6z"/>
	</g>
</g>
</svg>
