<?xml version="1.0" encoding="utf-8"?>
<!-- Generator: Adobe Illustrator 22.0.1, SVG Export Plug-In . SVG Version: 6.00 Build 0)  -->
<svg version="1.1" id="Calque_1" xmlns="http://www.w3.org/2000/svg" xmlns:xlink="http://www.w3.org/1999/xlink" x="0px" y="0px"
	 viewBox="0 0 49.5 33.5" style="enable-background:new 0 0 49.5 33.5;" xml:space="preserve">
<style type="text/css">
	.st0{fill:#96999F;stroke:#96999F;stroke-width:0.5;stroke-miterlimit:10;}
</style>
<g>
	<path class="st0" d="M49.2,0.7C49.2,0.6,49.2,0.6,49.2,0.7c0-0.1-0.1-0.2-0.1-0.2c0,0,0,0,0-0.1c0,0,0,0,0,0c0,0-0.1,0-0.1-0.1
		c0,0,0,0-0.1,0c0,0-0.1,0-0.1,0c0,0-0.1,0-0.1,0c0,0,0,0,0,0h-48c0,0,0,0,0,0c0,0-0.1,0-0.1,0c0,0-0.1,0-0.1,0c0,0,0,0-0.1,0
		c0,0-0.1,0-0.1,0.1c0,0,0,0,0,0c0,0,0,0,0,0.1c0,0,0,0.1,0,0.1c0,0,0,0.1,0,0.1c0,0,0,0,0,0.1v32c0,0.3,0.2,0.5,0.5,0.5h48
		c0.3,0,0.5-0.2,0.5-0.5L49.2,0.7C49.3,0.7,49.2,0.7,49.2,0.7z M47.4,1.3L24.8,20.1L2.1,1.3H47.4z M1.3,32.3V1.8l23.2,19.3
		c0.1,0.1,0.2,0.1,0.3,0.1c0.1,0,0.2,0,0.3-0.1L48.3,1.8v30.4H1.3z"/>
</g>
</svg>
