<?xml version="1.0" encoding="utf-8"?>
<!-- Generator: Adobe Illustrator 22.0.1, SVG Export Plug-In . SVG Version: 6.00 Build 0)  -->
<svg version="1.1"
	 id="Calque_1" xmlns:cc="http://creativecommons.org/ns#" xmlns:dc="http://purl.org/dc/elements/1.1/" xmlns:inkscape="http://www.inkscape.org/namespaces/inkscape" xmlns:rdf="http://www.w3.org/1999/02/22-rdf-syntax-ns#" xmlns:sodipodi="http://sodipodi.sourceforge.net/DTD/sodipodi-0.dtd" xmlns:svg="http://www.w3.org/2000/svg"
	 xmlns="http://www.w3.org/2000/svg" xmlns:xlink="http://www.w3.org/1999/xlink" x="0px" y="0px" viewBox="0 0 100 125"
	 style="enable-background:new 0 0 100 125;" xml:space="preserve">
<style type="text/css">
	.st0{fill:#303641;}
</style>
<g transform="translate(0,-952.3622)">
	<path class="st0" d="M62.8,978.4L43.3,998l-7.3,26.8H16.7v1.5h18.9c0,0,18.8-5.2,28.2-7.7l19.6-19.7l-1.1-1.1l-18.6,18.7l-2.2-6.5
		l-7.3-2.4l-2.4-7.3l-6.5-2.2l18.6-18.7L62.8,978.4z M44.4,999.4l6.2,2.1l2.4,7.3l7.3,2.4l2.1,6.2l-16.4,4.5l-6-6L44.4,999.4z
		 M39.5,1017.6l4.8,4.8l-6.6,1.8L39.5,1017.6z"/>
</g>
</svg>
