<?xml version="1.0" encoding="utf-8"?>
<!-- Generator: Adobe Illustrator 22.0.1, SVG Export Plug-In . SVG Version: 6.00 Build 0)  -->
<svg version="1.1" id="Calque_1" xmlns="http://www.w3.org/2000/svg" xmlns:xlink="http://www.w3.org/1999/xlink" x="0px" y="0px"
	 viewBox="0 0 100 125" style="enable-background:new 0 0 100 125;" xml:space="preserve">
<style type="text/css">
	.st0{fill:#303641;stroke:#FFFFFF;stroke-width:0.75;stroke-linecap:round;stroke-linejoin:round;stroke-miterlimit:10;}
	.st1{fill:#303641;}
</style>
<path class="st0" d="M49,82.1"/>
<path class="st1" d="M68.3,34.9h-8.7v-1.1c0-1.6-1.3-2.8-2.8-2.8H42.1c-1.6,0-2.8,1.3-2.8,2.8v1.1h-8.7c-1.6,0-2.8,1.3-2.8,2.8v9.7
	v1.1v17.8c0,1.6,1.3,2.8,2.8,2.8h37.7c1.6,0,2.8-1.3,2.8-2.8V37.7C71.2,36.2,69.9,34.9,68.3,34.9z M40.4,33.8c0-0.9,0.8-1.7,1.7-1.7
	h14.7c0.9,0,1.7,0.8,1.7,1.7v1.1H40.4V33.8z M70,66.2c0,0.9-0.8,1.7-1.7,1.7H30.6c-0.9,0-1.7-0.8-1.7-1.7V48.5h5.4v1.8
	c0,1,0.8,1.9,1.9,1.9s1.9-0.8,1.9-1.9v-1.8h22.3v1.8c0,1,0.8,1.9,1.9,1.9s1.9-0.8,1.9-1.9v-1.8h6L70,66.2L70,66.2z M36.9,48.5v1.8
	c0,0.4-0.3,0.7-0.7,0.7s-0.7-0.3-0.7-0.7v-1.8H36.9z M35.5,47.4v-0.5c0-0.4,0.3-0.7,0.7-0.7s0.7,0.3,0.7,0.7v0.5H35.5z M62.9,48.5
	v1.8c0,0.4-0.3,0.7-0.7,0.7s-0.7-0.3-0.7-0.7v-1.8H62.9z M61.5,47.4v-0.5c0-0.4,0.3-0.7,0.7-0.7s0.7,0.3,0.7,0.7v0.5H61.5z M70,47.4
	h-6v-0.5c0-1-0.8-1.9-1.9-1.9s-1.9,0.8-1.9,1.9v0.5H38.1v-0.5c0-1-0.8-1.9-1.9-1.9s-1.9,0.8-1.9,1.9v0.5h-5.4v-9.7
	c0-0.9,0.8-1.7,1.7-1.7h37.7c0.9,0,1.7,0.8,1.7,1.7C70,37.7,70,47.4,70,47.4z"/>
</svg>
