<?xml version="1.0" encoding="utf-8"?>
<!-- Generator: Adobe Illustrator 22.0.1, SVG Export Plug-In . SVG Version: 6.00 Build 0)  -->
<svg version="1.1"
	 id="Calque_1" xmlns:cc="http://creativecommons.org/ns#" xmlns:dc="http://purl.org/dc/elements/1.1/" xmlns:inkscape="http://www.inkscape.org/namespaces/inkscape" xmlns:rdf="http://www.w3.org/1999/02/22-rdf-syntax-ns#" xmlns:sodipodi="http://sodipodi.sourceforge.net/DTD/sodipodi-0.dtd" xmlns:svg="http://www.w3.org/2000/svg"
	 xmlns="http://www.w3.org/2000/svg" xmlns:xlink="http://www.w3.org/1999/xlink" x="0px" y="0px" viewBox="0 0 100 125"
	 style="enable-background:new 0 0 100 125;" xml:space="preserve">
<style type="text/css">
	.st0{fill:#FFC300;}
</style>
<g transform="translate(0,-952.36218)">
	<path class="st0" d="M27,959.4c-0.6,0-1,0.4-1,1c0,0.1,0.3,1,0.3,1c1.3,3.7,0.6,5.2-0.2,7.2c-0.9,2.2-1.8,5,0,10.1
		c0.1,0.5,0.8,0.9,1.3,0.7c0.5-0.2,0.8-0.9,0.6-1.4c-1.7-4.7-0.9-6.6,0-8.7c0.8-2.1,1.7-4.6,0.1-8.9c0,0-0.1-0.4-0.2-0.6
		C27.6,959.5,27.3,959.4,27,959.4z M44,959.4c-0.6,0-1,0.4-1,1c0,0.1,0.3,1,0.3,1c1.3,3.7,0.6,5.2-0.2,7.2c-0.9,2.2-1.8,5,0,10.1
		c0.1,0.5,0.8,0.9,1.3,0.7c0.5-0.2,0.8-0.9,0.6-1.4c-1.7-4.7-0.9-6.6,0-8.7c0.8-2.1,1.7-4.6,0.1-8.9c0,0-0.1-0.4-0.2-0.6
		C44.6,959.5,44.3,959.4,44,959.4z M61,959.4c-0.6,0-1,0.4-1,1c0,0.1,0.3,1,0.3,1c1.3,3.7,0.6,5.2-0.2,7.2c-0.9,2.2-1.8,5,0,10.1
		c0.1,0.5,0.8,0.9,1.3,0.7c0.5-0.2,0.8-0.9,0.6-1.4c-1.7-4.7-0.9-6.6,0-8.7c0.8-2.1,1.7-4.6,0.1-8.9c0,0-0.1-0.4-0.2-0.6
		C61.6,959.5,61.3,959.4,61,959.4z M11.8,989.4c-0.5,0.1-0.8,0.5-0.8,1v38c0,6.5,3.6,12.1,9,15H8c-0.6,0-1,0.4-1,1s0.4,1,1,1h72
		c0.5,0,1-0.5,1-1c0-0.5-0.5-1-1-1H68c3.3-1.8,5.9-4.6,7.4-8h10.9c3.7,0,6.7-3,6.7-6.7V1006c0-3.7-3-6.7-6.7-6.7H77v-9
		c0-0.5-0.5-1-1-1H12C11.9,989.4,11.9,989.4,11.8,989.4z M13,991.4h62v37c0,8.3-6.7,15-15,15H28c-8.3,0-15-6.7-15-15V991.4z
		 M77,1001.4h9.3c2.6,0,4.7,2.1,4.7,4.7v22.7c0,2.6-2.1,4.7-4.7,4.7H76.2c0.5-1.6,0.8-3.3,0.8-5V1001.4z"/>
</g>
</svg>
